<svg xmlns="http://www.w3.org/2000/svg" viewBox="0 0 512 512">
  <rect width="512" height="512" fill="#0a0e1a"/>
  <!-- Artwork scaled to 62% around the center so it fits inside the
       maskable safe zone (central circle, radius 40% = 204.8px). -->
  <g transform="translate(256 256) scale(0.62) translate(-256 -256)">
    <rect x="146" y="0" width="220" height="512" fill="#3a3f4b"/>
    <rect x="146" y="0" width="10" height="512" fill="#f1f1f1"/>
    <rect x="356" y="0" width="10" height="512" fill="#f1f1f1"/>
    <rect x="251" y="20"  width="10" height="60" fill="#ffffff" opacity="0.75"/>
    <rect x="251" y="120" width="10" height="60" fill="#ffffff" opacity="0.75"/>
    <rect x="251" y="220" width="10" height="60" fill="#ffffff" opacity="0.75"/>
    <rect x="251" y="420" width="10" height="60" fill="#ffffff" opacity="0.75"/>
    <g>
      <rect x="196" y="270" width="120" height="210" rx="28" fill="#4facfe"/>
      <rect x="216" y="300" width="80" height="40" rx="10" fill="#0f192d" opacity="0.85"/>
      <rect x="216" y="400" width="80" height="32" rx="10" fill="#0f192d" opacity="0.85"/>
      <rect x="248" y="272" width="16" height="24" fill="#ffffff" opacity="0.85"/>
      <rect x="248" y="350" width="16" height="44" fill="#ffffff" opacity="0.85"/>
      <rect x="248" y="444" width="16" height="24" fill="#ffffff" opacity="0.85"/>
    </g>
    <circle cx="256" cy="150" r="34" fill="#ffd166" stroke="#e09f3e" stroke-width="6"/>
    <text x="256" y="163" font-family="sans-serif" font-size="40" font-weight="bold" fill="#e09f3e" text-anchor="middle">$</text>
  </g>
</svg>
